<?xml version="1.0" encoding="iso-8859-1"?>
<!-- Generator: Adobe Illustrator 19.0.0, SVG Export Plug-In . SVG Version: 6.00 Build 0)  -->
<svg version="1.1" id="Layer_1" xmlns="http://www.w3.org/2000/svg" xmlns:xlink="http://www.w3.org/1999/xlink" x="0px" y="0px"
	 viewBox="0 0 508 508" style="enable-background:new 0 0 508 508;" xml:space="preserve">
<circle style="fill:#84DBFF;" cx="254" cy="254" r="254"/>
<rect x="317.411" y="147.101" transform="matrix(-0.9958 -0.0918 0.0918 -0.9958 618.9692 431.766)" style="fill:#2B3B4E;" width="4" height="109.102"/>
<rect x="133.875" y="199.675" transform="matrix(-0.0922 -0.9957 0.9957 -0.0922 4.9883 407.8982)" style="fill:#2B3B4E;" width="109.096" height="4"/>
<rect x="115.511" y="251.294" transform="matrix(-0.1069 -0.9943 0.9943 -0.1069 -70.0771 443.6417)" style="fill:#2B3B4E;" width="97.403" height="4"/>
<rect x="341.696" y="204.598" transform="matrix(-0.9943 -0.1064 0.1064 -0.9943 658.4886 541.7267)" style="fill:#2B3B4E;" width="4" height="97.398"/>
<path style="fill:#324A5E;" d="M387.7,208.9l-97.4-31.7c-4.9-1.6-5.1-8.5-0.3-10.4l55.7-22c3.1-1.2,4.6-4.8,2.8-7.6
	c-1.3-2.1-3.8-2.9-6-2.2l-75.4,24.6c-10,3.3-20.7,3.3-30.7,0L161.1,135c-2.2-0.7-4.7,0.1-6,2.2c-1.8,2.8-0.3,6.4,2.8,7.6l55.7,22
	c4.8,1.9,4.6,8.8-0.3,10.4l-97.4,31.7c-3.6,1.2-4.8,5.8-2,8.5l11.1,11.1c1.4,1.4,3.6,1.9,5.5,1.1L233.6,189
	c11.7-4.6,24.7-4.6,36.3,0L373,229.7c1.9,0.8,4.1,0.3,5.5-1.1l11.1-11.1C392.5,214.7,391.4,210.1,387.7,208.9z"/>
<g>
	<path style="fill:#FFFFFF;" d="M452.6,195.6c0,3.9-0.9,7-15,7s-36.1-3.1-36.1-7s22-7,36.1-7S452.6,191.8,452.6,195.6z"/>
	<path style="fill:#FFFFFF;" d="M333.6,195.6c0,3.9,0.9,7,15,7s36.1-3.1,36.1-7s-22-7-36.1-7S333.6,191.8,333.6,195.6z"/>
</g>
<path style="fill:#ACB3BA;" d="M414.1,219.1c0,15.7-9.4,23-21,23s-21-7.2-21-23s9.4-34,21-34S414.1,203.3,414.1,219.1z"/>
<path style="fill:#E6E9EE;" d="M411.7,204.6c-3.5-10.7-10.5-19.6-18.6-19.6s-15.1,8.9-18.6,19.6H411.7z"/>
<g>
	<path style="fill:#FFFFFF;" d="M174.4,195.6c0,3.9-0.9,7-15,7s-36.1-3.1-36.1-7s22-7,36.1-7S174.4,191.8,174.4,195.6z"/>
	<path style="fill:#FFFFFF;" d="M55.4,195.6c0,3.9,0.9,7,15,7s36.1-3.1,36.1-7s-22-7-36.1-7S55.4,191.8,55.4,195.6z"/>
</g>
<path style="fill:#ACB3BA;" d="M135.9,219.1c0,15.7-9.4,23-21,23s-21-7.2-21-23s9.4-34,21-34S135.9,203.3,135.9,219.1z"/>
<path style="fill:#E6E9EE;" d="M133.5,204.6C130,193.9,123,185,114.9,185s-15.1,8.9-18.6,19.6H133.5z"/>
<g>
	<path style="fill:#FFFFFF;" d="M391.3,122.3c0,2.7-0.6,4.9-10.4,4.9c-9.7,0-24.9-2.2-24.9-4.9c0-2.7,15.2-4.9,24.9-4.9
		C390.6,117.5,391.3,119.7,391.3,122.3z"/>
	<path style="fill:#FFFFFF;" d="M309,122.3c0,2.7,0.6,4.9,10.4,4.9s24.9-2.2,24.9-4.9c0-2.7-15.2-4.9-24.9-4.9S309,119.7,309,122.3z
		"/>
</g>
<path style="fill:#ACB3BA;" d="M364.6,138.5c0,10.9-6.5,15.9-14.5,15.9s-14.5-5-14.5-15.9s6.5-23.5,14.5-23.5
	C358.2,115,364.6,127.7,364.6,138.5z"/>
<path style="fill:#E6E9EE;" d="M363,128.5c-2.4-7.4-7.3-13.5-12.8-13.5c-5.6,0-10.4,6.1-12.8,13.5H363z"/>
<g>
	<path style="fill:#FFFFFF;" d="M199,122.3c0,2.7-0.6,4.9-10.4,4.9c-9.7,0-24.9-2.2-24.9-4.9c0-2.7,15.2-4.9,24.9-4.9
		C198.3,117.5,199,119.7,199,122.3z"/>
	<path style="fill:#FFFFFF;" d="M116.7,122.3c0,2.7,0.6,4.9,10.4,4.9c9.7,0,24.9-2.2,24.9-4.9c0-2.7-15.2-4.9-24.9-4.9
		C117.4,117.5,116.7,119.7,116.7,122.3z"/>
</g>
<path style="fill:#ACB3BA;" d="M172.4,138.5c0,10.9-6.5,15.9-14.5,15.9s-14.5-5-14.5-15.9s6.5-23.5,14.5-23.5
	S172.4,127.7,172.4,138.5z"/>
<path style="fill:#E6E9EE;" d="M170.7,128.5c-2.4-7.4-7.3-13.5-12.8-13.5c-5.6,0-10.4,6.1-12.8,13.5H170.7z"/>
<rect x="166.5" y="275.3" style="fill:#FFFFFF;" width="175" height="144.1"/>
<rect x="235" y="275.3" style="fill:#F1543F;" width="38" height="13.7"/>
<g>
	<path style="fill:#E6E9EE;" d="M280.7,329.1h-53.4c-5.1,0-9.2-4.1-9.2-9.2l0,0c0-5.1,4.1-9.2,9.2-9.2h53.4c5.1,0,9.2,4.1,9.2,9.2
		l0,0C289.9,325,285.8,329.1,280.7,329.1z"/>
	<polygon style="fill:#E6E9EE;" points="315.2,247.4 341.5,275.3 166.5,275.3 192.8,247.4 	"/>
</g>
<polygon style="fill:#FF7058;" points="273,275.3 267.1,247.4 240.9,247.4 235,275.3 "/>
<g>
</g>
<g>
</g>
<g>
</g>
<g>
</g>
<g>
</g>
<g>
</g>
<g>
</g>
<g>
</g>
<g>
</g>
<g>
</g>
<g>
</g>
<g>
</g>
<g>
</g>
<g>
</g>
<g>
</g>
</svg>
