<?xml version="1.0" encoding="utf-8"?>
<!-- Generator: Adobe Illustrator 23.0.4, SVG Export Plug-In . SVG Version: 6.00 Build 0)  -->
<svg version="1.1" id="Capa_1" xmlns="http://www.w3.org/2000/svg" xmlns:xlink="http://www.w3.org/1999/xlink" x="0px" y="0px"
	 viewBox="0 0 706.6 382.8" style="enable-background:new 0 0 706.6 382.8;" xml:space="preserve">
<style type="text/css">
	.st0{opacity:0.3;fill:#F6F5F5;}
	.st1{fill:#E2ECF8;}
	.st2{fill:#3C3C3B;}
	.st3{fill:#333332;}
	.st4{fill:#575756;}
	.st5{fill:#474646;}
	.st6{fill:#868686;}
	.st7{fill:#333333;}
	.st8{fill:#121212;}
	.st9{fill:#D9D9D9;}
	.st10{fill:#1D1D1B;}
	.st11{fill:#FFFFFF;}
	.st12{opacity:0.6;fill:#91D4F5;}
</style>
<g>
	<g>
		<g>
			<g>
				<path class="st0" d="M392.1,70.1h5.7c-2.7-10.4-12.5-34.1-46.2-34.4c-4.7,0-9.2,0.3-13.3,1.2c2.5-0.3,5.2-0.4,7.9-0.4
					C379,36.8,389.2,59.3,392.1,70.1z"/>
			</g>
			<path class="st1" d="M397.8,70.1c-2.7-10.4-12.5-34.1-46.2-34.4c-5.5-0.1-10.7,0.5-15.4,1.6c-1.5,0.3-5.5,1.6-8.2,2.7
				c-12.3,5.4-20.9,16-24.5,30.1H397.8z"/>
		</g>
		<path class="st2" d="M256.7,166.8l-31.8,91.8c-2.5,7.1-9.2,11.9-16.7,11.9l0,0L247,158.5c3.6-10.5,10.2-19.7,18.9-26.6l15.3-12
			l11.1,6.9l-17.1,13.6C266.8,147.3,260.3,156.5,256.7,166.8z"/>
		<path class="st3" d="M155.9,21.1h-34.2c-1.3,0-2.3,1-2.3,2.3v25.3h38.9V23.4C158.3,22.1,157.2,21.1,155.9,21.1z"/>
		<path class="st4" d="M158.3,27.5c-0.3-3.6-3.3-6.4-7-6.4h-24.9c-3.7,0-6.7,2.8-7,6.4H158.3z"/>
		<rect x="133.9" y="15.2" class="st5" width="9.8" height="5.9"/>
		<path class="st5" d="M146.3,15.2h-14.9c-0.5,0-0.8-0.4-0.8-0.8V3.7h16.5v10.7C147.1,14.8,146.7,15.2,146.3,15.2z"/>
		<path class="st6" d="M147.1,3.7h-16.5V0.6c0-0.3,0.2-0.6,0.6-0.6h15.4c0.3,0,0.6,0.2,0.6,0.6V3.7z"/>
		<path class="st6" d="M147.1,3.4v3.9c0,0,15.5,2.7,20.6,3.8c6.4,1.5,13,2.7,19.6,2.5l101.9-4.9V6.7L147.1,3.4z"/>
		<path class="st6" d="M130.6,7.8V3.7l-26.7-3.6L0,2.7v3.1l79.9,9.5c15,1.7,30.2,0.1,44.4-5.2L130.6,7.8z"/>
		<path class="st2" d="M426.1,140.5l-17.1-13.6l11.1-6.9l15.3,12c8.7,6.9,15.3,16.1,18.9,26.6l38.8,111.9l0,0
			c-7.5,0-14.2-4.8-16.7-11.9l-31.8-91.8C441.1,156.5,434.7,147.3,426.1,140.5z"/>
		<path class="st4" d="M583.7,48.8h-87c-5.8,0-11.6,0.9-17.1,2.7l-68.9,22c-1.9,0.6-4,0.2-5.6-1h0c-1.8-1.5-4.1-2.3-6.4-2.3h-47.9
			h-47.9c-2.3,0-4.6,0.8-6.4,2.3l0,0c-1.6,1.3-3.7,1.6-5.6,1l-68.9-22c-5.5-1.8-11.3-2.7-17.1-2.7h-87c-4.8,0-8.7,3.9-8.7,8.7v2V75
			c0,7.1,5.7,12.8,12.8,12.8H193c13.3,0,26.1,4.7,36.3,13.2l56.7,47.7c5.1,4.3,11.6,6.7,18.3,6.7h46.5h46.5c6.7,0,13.1-2.4,18.3-6.7
			l56.7-47.7c10.2-8.6,23-13.2,36.3-13.2h71.1c7.1,0,12.8-5.7,12.8-12.8V59.4v-2C592.4,52.7,588.5,48.8,583.7,48.8z"/>
		<polygon class="st7" points="332.5,155.4 332.5,182.7 365.9,182.7 365.9,155.4 350.7,155.4 		"/>
		<polygon class="st5" points="332.5,155.4 332.5,164 365.9,164 365.9,155.4 350.7,155.4 		"/>
		<path class="st8" d="M496.2,59.4c-5.5,0-10.9,1.2-15.9,3.5l-64,29.4c-5.8,2.7-12.1,4.1-18.5,4.1h-47.2h-47.2
			c-6.4,0-12.7-1.4-18.5-4.1l-64-29.4c-5-2.3-10.4-3.5-15.9-3.5h-96.2V75c0,7.1,5.7,12.8,12.8,12.8H193c13.3,0,26.1,4.7,36.3,13.2
			l56.7,47.7c5.1,4.3,11.6,6.7,18.3,6.7h28.3h18.2h15.2h31.3c6.7,0,13.1-2.4,18.3-6.7l56.7-47.7c10.2-8.6,23-13.2,36.3-13.2h71.1
			c7.1,0,12.8-5.7,12.8-12.8V59.4H496.2z"/>
		<path class="st3" d="M545.5,21.1h34.2c1.3,0,2.3,1,2.3,2.3v25.3h-38.9V23.4C543.1,22.1,544.2,21.1,545.5,21.1z"/>
		<path class="st4" d="M543.2,27.5c0.3-3.6,3.3-6.4,7-6.4h24.9c3.7,0,6.7,2.8,7,6.4H543.2z"/>
		<polygon class="st3" points="445.2,113.7 429.7,124.5 420.8,120.2 439.1,109 		"/>
		<path class="st5" d="M445.8,132l-19.1-15.3l12.5-7.8l17.1,13.5c9.8,7.7,17.1,18,21.2,29.8l43.4,125.4l0,0c-8.4,0-16-5.3-18.7-13.3
			l-35.6-102.8C462.6,149.9,455.4,139.7,445.8,132z"/>
		
			<rect x="557.7" y="15.2" transform="matrix(-1 -1.224647e-16 1.224647e-16 -1 1125.1813 36.2851)" class="st5" width="9.8" height="5.9"/>
		<path class="st5" d="M555.1,15.2H570c0.5,0,0.8-0.4,0.8-0.8V3.7h-16.5v10.7C554.3,14.8,554.7,15.2,555.1,15.2z"/>
		<path class="st6" d="M554.3,3.7h16.5V0.6c0-0.3-0.2-0.6-0.6-0.6h-15.4c-0.3,0-0.6,0.2-0.6,0.6V3.7z"/>
		<path class="st6" d="M554.3,3.1V7c0,0-15.5,3-20.6,4.2c-6.4,1.6-13,2.7-19.6,2.5L409.6,8.9V6.7L554.3,3.1z"/>
		<path class="st6" d="M570.9,7.8V3.7l26.7-3.6l109,2.6v3.1l-85.2,9.5c-15,1.7-30.2,0.1-44.4-5.2L570.9,7.8z"/>
		<path class="st4" d="M401,246.4h-78.5c-1.3,0-2.3-1-2.3-2.3v-59c0-1.3,1-2.3,2.3-2.3H401c1.3,0,2.3,1,2.3,2.3v59
			C403.3,245.3,402.3,246.4,401,246.4z"/>
		<rect x="267.2" y="188.4" class="st4" width="47.3" height="53.3"/>
		<rect x="314.5" y="197" class="st2" width="5.7" height="39.8"/>
		<path class="st5" d="M267.2,188.4h-4.5c-0.9,0-1.6,0.7-1.6,1.6v50.1c0,0.9,0.7,1.6,1.6,1.6h4.5V188.4z"/>
		<path class="st4" d="M261.2,208.5h-8.8c-1.1,0-2,0.9-2,2v9.1c0,1.1,0.9,2,2,2h8.8V208.5z"/>
		<path class="st9" d="M349.5,191.7h-19.1c-0.8,0-1.4,0.6-1.4,1.4v19.1c0,0.8,0.6,1.4,1.4,1.4h19.1c0.8,0,1.4-0.6,1.4-1.4v-19.1
			C350.9,192.3,350.3,191.7,349.5,191.7z"/>
		<path class="st2" d="M367.1,246.4h-10.8v2.7c0,0.4,0.4,0.8,0.8,0.8h9.2c0.4,0,0.8-0.4,0.8-0.8V246.4z"/>
		<g>
			<circle class="st6" cx="378.4" cy="210.3" r="18.6"/>
			<circle class="st2" cx="378.4" cy="210.3" r="14.3"/>
			<circle class="st10" cx="378.4" cy="210.3" r="7.9"/>
			<path class="st11" d="M376.8,205.3c-1,0.2-2.5,1-3.3,2.5c-0.3,0.6,0.1,1.3,0.7,1.4c0.6,0.1,1.1-0.2,1.4-0.6
				c0.5-0.7,1.1-1.2,1.9-1.5c0.4-0.2,0.7-0.5,0.7-1.1C378.2,205.6,377.7,205.1,376.8,205.3z"/>
		</g>
		<polygon class="st3" points="256.2,113.7 271.7,124.5 280.7,120.2 262.3,109 		"/>
		<path class="st5" d="M234.8,161.5l-35.6,102.8c-2.8,8-10.3,13.3-18.7,13.3l0,0l43.4-125.4c4.1-11.8,11.4-22.1,21.2-29.8l17.1-13.5
			l12.5,7.8L255.6,132C246.1,139.7,238.8,149.9,234.8,161.5z"/>
	</g>
	<ellipse class="st12" cx="353.3" cy="353.7" rx="229.5" ry="29.1"/>
</g>
</svg>
