<svg xmlns:dc="http://purl.org/dc/elements/1.1/" xmlns:cc="http://creativecommons.org/ns#" xmlns:rdf="http://www.w3.org/1999/02/22-rdf-syntax-ns#" xmlns:svg="http://www.w3.org/2000/svg" xmlns="http://www.w3.org/2000/svg" xmlns:sodipodi="http://sodipodi.sourceforge.net/DTD/sodipodi-0.dtd" xmlns:inkscape="http://www.inkscape.org/namespaces/inkscape" version="1.1" x="0px" y="0px" viewBox="0 0 100 125"><g transform="translate(0,-952.36218)"><path style="text-indent:0;text-transform:none;direction:ltr;block-progression:tb;baseline-shift:baseline;color:#000000;enable-background:accumulate;" d="m 32.95268,959.36369 a 0.9994818,0.99971909 0 0 0 -0.687075,0.31239 l -9.931357,9.93372 c -0.432525,-0.12315 -0.872345,-0.21867 -1.342919,-0.21867 -2.74788,0 -4.99691,2.24957 -4.99691,4.99809 0,1.01548 0.286275,1.95798 0.811998,2.74895 l -9.5253583,9.52762 a 1.0048567,1.0050954 0 1 0 1.4366114,1.40571 l 9.5253589,-9.52762 c 0.793217,0.5308 1.727871,0.84342 2.7483,0.84342 0.762722,0 1.475258,-0.1906 2.123686,-0.4998 a 0.9994818,0.99971909 0 0 0 0.156154,0.18744 l 5.996291,5.99771 a 1.0048567,1.0050954 0 0 0 0.06246,0.0937 l -1.186766,1.21828 c -1.56347,1.56386 -1.569326,4.16415 0.03123,5.71658 l 3.716451,3.59238 c -0.69218,2.12259 -0.90569,4.52181 -0.90569,6.68491 0,2.1729 0.205412,4.5557 0.90569,6.685 l -3.716451,3.5923 c -1.600562,1.5526 -1.59472,4.1214 -0.03123,5.6853 l 1.217997,1.2184 a 0.9994818,0.99971909 0 0 0 -0.09369,0.094 l -5.996291,5.9977 a 1.0048741,1.0051127 0 0 0 -0.156154,0.2187 c -0.648428,-0.3091 -1.360964,-0.4997 -2.123686,-0.4997 -1.01523,0 -1.957521,0.2862 -2.7483,0.8121 l -9.5253589,-9.5277 a 0.9994818,0.99971909 0 0 0 -0.8432284,-0.3124 0.9994818,0.99971909 0 0 0 -0.593383,1.7182 l 9.5565893,9.5588 c -0.530664,0.7934 -0.843229,1.7283 -0.843229,2.749 0,2.7485 2.24903,4.9981 4.99691,4.9981 0.480878,0 0.933205,-0.09 1.37415,-0.2186 l 9.900126,9.9023 a 1.0048743,1.005113 0 1 0 1.436612,-1.4057 l -9.494128,-9.4963 c 1.073609,-0.9186 1.780149,-2.2647 1.780149,-3.7798 0,-1.273 -0.489575,-2.4263 -1.280458,-3.3113 l 5.996291,-5.9976 a 0.9994818,0.99971909 0 0 0 0.06246,-0.062 l 0.218614,0.1874 c 1.563516,1.5639 4.167049,1.6132 5.715215,0 l 2.467224,-2.5616 c 3.111379,1.9394 7.045252,2.7491 10.805817,2.7491 3.760565,0 7.694438,-0.8097 10.805816,-2.7491 l 2.467224,2.5616 c 1.548167,1.6132 4.151699,1.5639 5.715215,0 l 0.187384,-0.1874 a 0.9994818,0.99971909 0 0 0 0.09369,0.062 l 5.996292,5.9976 c -0.790883,0.885 -1.280458,2.0383 -1.280458,3.3113 0,1.5151 0.706539,2.8612 1.780148,3.7798 l -9.494127,9.4963 a 1.0048741,1.0051127 0 1 0 1.436611,1.4057 l 9.900127,-9.9023 c 0.440944,0.1283 0.893271,0.2186 1.37415,0.2186 2.747879,0 4.996909,-2.2496 4.996909,-4.9981 0,-1.0307 -0.302983,-1.9822 -0.843228,-2.7803 l 9.556589,-9.5275 a 0.9994818,0.99971909 0 0 0 -0.749537,-1.7182 0.9994818,0.99971909 0 0 0 -0.687075,0.3124 l -9.525358,9.5277 c -0.79078,-0.5259 -1.73307,-0.8121 -2.7483,-0.8121 -0.762722,0 -1.475259,0.1906 -2.123687,0.4997 a 1.0048741,1.0051127 0 0 0 -0.156153,-0.2187 l -5.996291,-5.9977 a 0.9994818,0.99971909 0 0 0 -0.09369,-0.094 l 1.217996,-1.2184 c 1.563489,-1.5639 1.569332,-4.1327 -0.03123,-5.6853 l -3.716452,-3.5923 c 0.700278,-2.1293 0.90569,-4.5121 0.90569,-6.685 0,-2.1631 -0.21351,-4.56232 -0.90569,-6.68491 l 3.716452,-3.59238 c 1.600557,-1.55243 1.5947,-4.15272 0.03123,-5.71658 l -1.217996,-1.21828 a 1.0048567,1.0050954 0 0 0 0.09369,-0.0937 l 5.996291,-5.99771 a 0.9994818,0.99971909 0 0 0 0.156153,-0.18744 c 0.648428,0.3092 1.360965,0.4998 2.123687,0.4998 1.020429,0 1.955083,-0.31262 2.7483,-0.84342 l 9.525358,9.52762 a 1.0048569,1.0050955 0 0 0 1.436612,-1.40571 l -9.525359,-9.52762 c 0.525723,-0.79097 0.811998,-1.73347 0.811998,-2.74895 0,-2.74852 -2.24903,-4.99809 -4.996909,-4.99809 -0.470574,0 -0.910394,0.0956 -1.34292,0.21867 l -9.931357,-9.93372 a 0.9994818,0.99971909 0 0 0 -0.843228,-0.31239 0.9994818,0.99971909 0 0 0 -0.593383,1.71809 l 9.494127,9.4964 c -1.082235,0.91873 -1.780148,2.28892 -1.780148,3.81104 0,1.26443 0.4989,2.39721 1.280458,3.28 l -5.996292,5.99771 a 1.0048567,1.0050954 0 0 0 -0.06246,0.0937 l -0.218615,-0.21866 c -0.781757,-0.78194 -1.835628,-1.18454 -2.873223,-1.18704 -1.037594,-0.003 -2.067913,0.38051 -2.841992,1.18704 l -2.467224,2.56152 c -3.110003,-1.93508 -7.048961,-2.71771 -10.805816,-2.71771 -3.756856,0 -7.695813,0.78263 -10.805817,2.71771 l -2.467224,-2.56152 c -0.783056,-0.81588 -1.836167,-1.1558 -2.841992,-1.1558 -1.016136,0 -2.079314,0.3617 -2.873223,1.1558 l -0.218614,0.21866 a 1.0048567,1.0050954 0 0 0 -0.06246,-0.0937 l -5.996291,-5.99771 c 0.781558,-0.88279 1.280458,-2.01557 1.280458,-3.28 0,-1.52212 -0.697913,-2.89231 -1.780149,-3.81104 l 9.494128,-9.4964 a 0.9994818,0.99971909 0 0 0 -0.749537,-1.71809 z m -11.961351,12.02667 c 1.667666,0 2.998145,1.3308 2.998145,2.99886 0,1.66806 -1.330479,2.99885 -2.998145,2.99885 -1.667667,0 -2.998146,-1.33079 -2.998146,-2.99885 0,-1.66806 1.330479,-2.99886 2.998146,-2.99886 z m 57.964148,0 c 1.667666,0 2.998145,1.3308 2.998145,2.99886 0,1.66806 -1.330479,2.99885 -2.998145,2.99885 -1.667667,0 -2.998146,-1.33079 -2.998146,-2.99885 0,-1.66806 1.330479,-2.99886 2.998146,-2.99886 z m -12.867042,12.96382 c 0.517044,0.003 1.036864,0.19367 1.436612,0.59352 l 2.841992,2.84267 c 0.79954,0.79973 0.829754,2.0994 0.03123,2.8739 l -4.122451,3.99847 a 0.9994818,0.99971909 0 0 0 -0.249845,1.0621 c 0.721587,1.82581 0.93692,4.37356 0.93692,6.65376 0,2.28 -0.215339,4.7967 -0.93692,6.6224 a 0.9994818,0.99971909 0 0 0 0.249845,1.0933 l 4.122451,3.9986 c 0.798518,0.7744 0.76829,2.0429 -0.03123,2.8426 l -2.841992,2.8427 c -0.799495,0.7997 -2.075856,0.7983 -2.841992,0 l -2.998146,-3.1239 a 0.9994818,0.99971909 0 0 0 -1.311689,-0.094 c -2.701599,1.9447 -6.630524,2.8115 -10.399817,2.8115 -3.769294,0 -7.698219,-0.8668 -10.399818,-2.8115 a 0.9994818,0.99971909 0 0 0 -1.311688,0.094 l -2.998146,3.1239 c -0.766136,0.7983 -2.042498,0.7997 -2.841992,0 l -2.841992,-2.8427 c -0.799522,-0.7997 -0.829749,-2.0682 -0.03123,-2.8426 l 4.12245,-3.9986 a 0.9994818,0.99971909 0 0 0 0.249846,-1.0933 c -0.721581,-1.8257 -0.936921,-4.3424 -0.936921,-6.6224 0,-2.2802 0.215334,-4.82795 0.936921,-6.65376 a 0.9994818,0.99971909 0 0 0 -0.249846,-1.0621 l -4.12245,-3.99847 c -0.798523,-0.7745 -0.76831,-2.07417 0.03123,-2.8739 l 2.841992,-2.84267 c 0.387596,-0.3877 0.910819,-0.56229 1.436611,-0.56229 0.536104,0 1.031285,0.1725 1.405381,0.56229 l 2.998146,3.1238 a 0.9994818,0.99971909 0 0 0 1.311688,0.12496 c 2.701589,-1.94485 6.630514,-2.81144 10.399818,-2.81144 3.769303,0 7.698228,0.86659 10.399817,2.81144 a 0.9994818,0.99971909 0 0 0 1.311689,-0.12496 l 2.998146,-3.1238 c 0.383072,-0.39914 0.888337,-0.59698 1.40538,-0.59352 z m -16.115032,9.0278 c -4.955652,0 -8.994437,4.03974 -8.994437,8.99662 0,4.9569 4.038785,8.9965 8.994437,8.9965 4.955653,0 8.994437,-4.0396 8.994437,-8.9965 0,-4.95688 -4.038784,-8.99662 -8.994437,-8.99662 z m 0,1.99924 c 3.875441,0 6.995673,3.12095 6.995673,6.99738 0,3.8763 -3.120232,6.9973 -6.995673,6.9973 -3.87544,0 -6.995673,-3.121 -6.995673,-6.9973 0,-3.87643 3.120233,-6.99738 6.995673,-6.99738 z M 20.991329,1027.369 c 1.667666,0 2.998145,1.3308 2.998145,2.9989 0,1.6681 -1.330479,2.9989 -2.998145,2.9989 -1.667667,0 -2.998146,-1.3308 -2.998146,-2.9989 0,-1.6681 1.330479,-2.9989 2.998146,-2.9989 z m 57.964148,0 c 1.667666,0 2.998145,1.3308 2.998145,2.9989 0,1.6681 -1.330479,2.9989 -2.998145,2.9989 -1.667667,0 -2.998146,-1.3308 -2.998146,-2.9989 0,-1.6681 1.330479,-2.9989 2.998146,-2.9989 z" fill="#000000" fill-opacity="1" stroke="none" marker="none" visibility="visible" display="inline" overflow="visible"/></g></svg>