<svg id="Capa_1" data-name="Capa 1" xmlns="http://www.w3.org/2000/svg" viewBox="0 0 200 126.3"><defs><style>.cls-1{fill:#21b692;}.cls-2{fill:#6cb4b5;}.cls-3{fill:#fff;}</style></defs><path d="M40.55,113H29l-2.39,6.06H23.36l9.87-24.22h3.08l9.91,24.22H43Zm-1.09-2.76-4.7-11.87-4.71,11.87Z"/><path d="M48.48,95.06a2.09,2.09,0,0,1,2-2.18,2,2,0,0,1,2,2.11,2,2,0,1,1-4.05.07Zm.53,5.67h3v18.34H49Z"/><path d="M66.58,100.56v3.22a4.17,4.17,0,0,0-.69,0c-3.21,0-5.2,2.18-5.2,6.2v9.13h-3V100.73h2.87v3.08C61.63,101.67,63.68,100.56,66.58,100.56Z"/><path class="cls-1" d="M78.59,94.85H88.5c7.13,0,12,4.78,12,12.11s-4.89,12.11-12,12.11H78.59Zm9.66,19.62c4.33,0,7.16-2.87,7.16-7.51s-2.83-7.51-7.16-7.51H83.64v15Z"/><path class="cls-1" d="M114.37,100.18v5c-.4,0-.72-.07-1.09-.07-2.68,0-4.45,1.63-4.45,5.19v8.79H104V100.46h4.64v2.45A6.51,6.51,0,0,1,114.37,100.18Z"/><path class="cls-1" d="M115.86,109.76c0-5.6,3.9-9.58,9.22-9.58s9.19,4,9.19,9.58-3.86,9.58-9.19,9.58S115.86,115.37,115.86,109.76Zm13.49,0c0-3.21-1.84-5.15-4.27-5.15s-4.3,1.94-4.3,5.15,1.87,5.16,4.3,5.16S129.35,113,129.35,109.76Z"/><path class="cls-1" d="M154.63,108.41v10.66h-4.86v-9.83c0-3-1.24-4.39-3.39-4.39-2.34,0-4,1.59-4,5v9.2H137.5V100.46h4.64v2.18a7,7,0,0,1,5.55-2.46C151.64,100.18,154.63,102.74,154.63,108.41Z"/><path class="cls-1" d="M175.52,111.28H162.85a4.54,4.54,0,0,0,4.79,3.74,5.39,5.39,0,0,0,4.21-1.8l2.58,3.12a8.33,8.33,0,0,1-6.91,3c-5.79,0-9.56-4-9.56-9.58s3.83-9.58,8.94-9.58c4.92,0,8.72,3.67,8.72,9.65C175.62,110.25,175.56,110.84,175.52,111.28Zm-12.73-3.14H171a4.13,4.13,0,0,0-8.25,0Z"/><path d="M12.27,30.5c0-2.37,4.4-4.45,11.12-5.71C15.54,26,10.33,28.1,10.33,30.5s5.21,4.5,13.06,5.7C16.67,34.94,12.27,32.85,12.27,30.5Z"/><path d="M53.63,24.79c6.71,1.26,11.11,3.35,11.11,5.7s-4.4,4.45-11.12,5.71c7.85-1.2,13.07-3.31,13.07-5.71S61.47,26,53.63,24.79Z"/><path d="M18.25,30.49c0-1.77,2.92-3.35,7.49-4.39-6,1-9.9,2.57-9.9,4.39s3.93,3.44,9.91,4.4C21.18,33.85,18.25,32.27,18.25,30.49Z"/><path d="M61.17,30.49c0-1.82-3.93-3.43-9.91-4.39,4.58,1,7.5,2.62,7.5,4.39s-2.92,3.36-7.5,4.4C57.24,33.93,61.17,32.32,61.17,30.49Z"/><path class="cls-2" d="M38.51,26.41c-7.36,0-13.32,1.83-13.32,4.08s6,4.08,13.32,4.09,13.31-1.83,13.31-4.09S45.86,26.41,38.51,26.41Z"/><path d="M161.49,5.17c-18.92,0-34.26,4.7-34.26,10.5v1.89A37.57,37.57,0,0,1,100,30.39,38.44,38.44,0,0,1,72.77,17.85V15.67c0-5.8-15.34-10.5-34.26-10.5S4.24,9.87,4.24,15.67V31.48h0c.1,5.77,15.4,10.44,34.26,10.44C55.7,41.92,69.93,38,72.38,33,75.72,34.76,85,40,87.3,44.13c1.78,3.23-7.55,5.24-14.5,6.28-1-3.49-10.59-6.22-22.23-6.22-12.33,0-22.33,3.07-22.33,6.85v10.3h0c.07,3.76,10,6.81,22.33,6.81S72.83,65.1,72.9,61.34h0V57.45a97.54,97.54,0,0,1,15.34-4.24,12.58,12.58,0,0,0-.41,3.09,12.17,12.17,0,0,0,24.34,0,12.58,12.58,0,0,0-.41-3.09,97.54,97.54,0,0,1,15.34,4.24v3.89h0c.07,3.76,10,6.81,22.33,6.81s22.26-3.05,22.33-6.81h0V51c0-3.78-10-6.85-22.33-6.85-11.64,0-21.2,2.73-22.23,6.22-7-1-16.28-3-14.5-6.28,2.33-4.22,11.82-9.62,14.87-11.27,2.28,5.12,16.59,9.06,33.92,9.06,18.86,0,34.16-4.67,34.26-10.44h0V15.67C195.76,9.87,180.42,5.17,161.49,5.17Zm-123,35.24c-18,0-32.63-4.48-32.63-10s14.61-10,32.63-10,32.62,4.48,32.62,10S56.53,40.41,38.51,40.41ZM50.57,67.16c-11.75,0-21.27-2.92-21.27-6.52s9.52-6.52,21.27-6.52S71.84,57,71.84,60.64,62.31,67.16,50.57,67.16Zm98.86-13c11.74,0,21.27,2.92,21.27,6.52s-9.53,6.52-21.27,6.52-21.27-2.92-21.27-6.52S137.69,54.12,149.43,54.12ZM85.9,29.62s12.52,7.24,28.88,0C114.78,29.62,101.36,40.44,85.9,29.62Zm75.59,10.79c-18,0-32.62-4.48-32.62-10s14.61-10,32.62-10,32.63,4.48,32.63,10S179.52,40.41,161.49,40.41Z"/><path d="M135.26,30.5c0-2.37,4.4-4.45,11.12-5.71-7.85,1.2-13.07,3.31-13.07,5.71s5.22,4.5,13.07,5.7C139.66,34.94,135.26,32.85,135.26,30.5Z"/><path d="M176.61,24.79c6.72,1.26,11.12,3.35,11.12,5.7s-4.4,4.45-11.12,5.71c7.85-1.2,13.07-3.31,13.07-5.71S184.46,26,176.61,24.79Z"/><path d="M141.24,30.49c0-1.77,2.92-3.35,7.49-4.39-6,1-9.9,2.57-9.9,4.39s3.93,3.44,9.91,4.4C144.17,33.85,141.24,32.27,141.24,30.49Z"/><path d="M184.16,30.49c0-1.82-3.93-3.43-9.91-4.39,4.57,1,7.5,2.62,7.5,4.39s-2.93,3.36-7.5,4.4C180.23,33.93,184.16,32.32,184.16,30.49Z"/><path class="cls-2" d="M161.49,26.41c-7.35,0-13.31,1.83-13.31,4.08s6,4.08,13.31,4.09,13.32-1.83,13.32-4.09S168.85,26.41,161.49,26.41Z"/><path d="M33.47,60.7c0-1.54,2.87-2.9,7.25-3.72-5.12.78-8.52,2.15-8.52,3.72s3.4,2.94,8.52,3.72C36.34,63.59,33.47,62.24,33.47,60.7Z"/><path d="M60.42,57c4.38.82,7.25,2.18,7.25,3.72s-2.87,2.89-7.25,3.72c5.12-.78,8.52-2.16,8.52-3.72S65.54,57.76,60.42,57Z"/><path d="M37.37,60.7c0-1.16,1.9-2.19,4.88-2.86-3.89.62-6.45,1.67-6.45,2.86s2.56,2.24,6.45,2.86C39.27,62.88,37.37,61.85,37.37,60.7Z"/><path d="M65.34,60.7c0-1.19-2.56-2.24-6.46-2.86,3,.67,4.89,1.7,4.89,2.86s-1.9,2.18-4.89,2.86C62.78,62.94,65.34,61.89,65.34,60.7Z"/><path class="cls-2" d="M50.57,58c-4.79,0-8.68,1.19-8.68,2.66s3.89,2.66,8.68,2.66,8.68-1.19,8.68-2.66S55.36,58,50.57,58Z"/><path d="M139.58,64.42c-4.38-.83-7.25-2.18-7.25-3.72s2.87-2.9,7.25-3.72c-5.12.78-8.52,2.15-8.52,3.72S134.46,63.64,139.58,64.42Z"/><path d="M166.53,60.7c0,1.54-2.87,2.89-7.25,3.72,5.12-.78,8.52-2.16,8.52-3.72s-3.4-2.94-8.51-3.72C163.66,57.8,166.53,59.16,166.53,60.7Z"/><path d="M134.66,60.7c0,1.19,2.56,2.24,6.45,2.86-3-.68-4.88-1.71-4.88-2.86s1.9-2.19,4.88-2.86C137.22,58.46,134.66,59.51,134.66,60.7Z"/><path d="M162.63,60.7c0,1.15-1.91,2.18-4.89,2.86,3.9-.62,6.46-1.67,6.46-2.86s-2.56-2.24-6.46-2.86C160.72,58.51,162.63,59.54,162.63,60.7Z"/><path class="cls-2" d="M149.43,63.36c4.79,0,8.68-1.19,8.68-2.66S154.22,58,149.43,58s-8.68,1.19-8.68,2.66S144.64,63.36,149.43,63.36Z"/><path class="cls-3" d="M108.92,56.17a9,9,0,1,1-9-9A9,9,0,0,1,108.92,56.17Z"/><path class="cls-2" d="M102.89,55.86a2.84,2.84,0,0,1-1.68-5.13,5.18,5.18,0,0,0-1.26-.15,5.6,5.6,0,1,0,5.6,5.59,5.68,5.68,0,0,0-.25-1.65A2.82,2.82,0,0,1,102.89,55.86Z"/></svg>